<svg xmlns="http://www.w3.org/2000/svg" width="64" height="64" viewBox="0 0 64 64">
    <defs>
        <linearGradient id="4igeo0hhja" x1="33.375%" x2="70.548%" y1="4.248%" y2="92.229%">
            <stop offset="0%" stop-color="#192647" stop-opacity=".5"/>
            <stop offset="100%" stop-color="#192647" stop-opacity="0"/>
        </linearGradient>
        <linearGradient id="sn8txg0o5b" x1="30.804%" x2="60.204%" y1="30.047%" y2="55.566%">
            <stop offset="0%" stop-color="#FFF" stop-opacity=".6"/>
            <stop offset="100%" stop-color="#FFF" stop-opacity=".2"/>
        </linearGradient>
        <linearGradient id="vepk8d6ivc" x1="99.997%" x2="0%" y1="50.003%" y2="50.003%">
            <stop offset="0%" stop-color="#043263"/>
            <stop offset="100%" stop-color="#043263" stop-opacity="0"/>
        </linearGradient>
    </defs>
    <g fill="none" fill-rule="evenodd">
        <g>
            <g>
                <g>
                    <path d="M0 0H64V64H0z" transform="translate(-112 -312) translate(112 312)"/>
                </g>
                <g fill-rule="nonzero">
                    <g transform="translate(-112 -312) translate(112 312) translate(10.666 5.456)">
                        <path fill="url(#4igeo0hhja)" d="M47.776 34.31v-.181c0-.168-.013-.323-.026-.49 0-.066 0-.117-.012-.168-.013-.207-.039-.427-.052-.633 0-.025 0-.065-.012-.09-.013-.182-.039-.362-.065-.556-.013-.065-.013-.13-.026-.182-.026-.167-.051-.336-.078-.503l-.026-.142-.116-.62c-.013-.038-.013-.078-.025-.116l-.117-.503c-.012-.052-.025-.117-.038-.168-.038-.181-.09-.361-.142-.529-.013-.026-.013-.051-.026-.078-.05-.207-.116-.4-.18-.607-.014-.038-.026-.078-.04-.129-.05-.167-.103-.323-.167-.49l-.05-.142c-.143-.4-.297-.789-.466-1.176l-.051-.116c-.065-.168-.142-.323-.22-.49l-.051-.104c-.181-.375-.362-.736-.569-1.098 1.589-1.007 2.557-2.764 2.557-4.65v-5.721c0-.22-.167-.387-.387-.387h-5.722c-1.898 0-3.655.968-4.662 2.57-.672-.361-1.356-.697-2.066-.98.116-.544.167-1.086.181-1.641 0-4.276-3.461-7.75-7.736-7.763-4.276-.012-7.75 3.462-7.763 7.737 0 .49.052.981.142 1.472-.865.336-1.717.723-2.53 1.163-1.008-1.601-2.765-2.571-4.663-2.571H6.85c-.22 0-.387.167-.387.387v5.722c0 1.886.968 3.642 2.557 4.65-4.546 8.279-2.906 18.585 3.991 25.043l1.163 8.06c.025.193.194.335.387.335h8.305c.22 0 .387-.167.387-.387v-2.776c2.557.477 5.193.477 7.75 0v2.789c0 .22.167.387.387.387h8.318c.194 0 .361-.142.387-.336l1.163-8.06c4.171-3.9 6.548-9.364 6.535-15.085-.004-.22-.004-.427-.017-.647z"/>
                        <path fill="#2DCCCD" d="M.387 7.833H6.11c3.048 0 5.514 2.468 5.514 5.515v5.876c0 .13-.103.233-.232.233H5.516C2.467 19.457 0 16.99 0 13.942V8.221C0 8 .17 7.833.387 7.833zM35.815 19.457H29.94c-.129 0-.232-.104-.232-.233v-5.876c0-3.049 2.467-5.515 5.514-5.515h5.722c.22 0 .387.168.387.388v5.721c0 3.049-2.466 5.515-5.515 5.515z"/>
                        <path fill="#1464A5" d="M41.33 28.55c0-11.417-9.248-20.665-20.665-20.665C9.247 7.885 0 17.133 0 28.55c0 5.722 2.364 11.185 6.548 15.086l1.163 8.06c.026.194.194.336.387.336h8.305c.22 0 .387-.168.387-.387v-2.79c2.557.49 5.193.49 7.75 0v2.79c0 .22.167.387.387.387h8.318c.194 0 .361-.142.387-.336l1.163-8.06c4.172-3.9 6.549-9.364 6.535-15.086z"/>
                        <path fill="#F6CB5C" d="M26.103 13.542c3.19-2.867 3.449-7.762.595-10.952C23.843-.6 18.934-.86 15.745 1.995c-3.19 2.855-3.448 7.763-.594 10.953.142.167.296.323.465.465 3.422-1.034 7.09-.995 10.487.13z"/>
                        <path fill="url(#sn8txg0o5b)" d="M24.554.898c-3.798-2.002-8.486-.543-10.488 3.254-1.615 3.074-.994 6.859 1.524 9.248.865-.27 1.744-.465 2.648-.581L24.554.898z"/>
                        <path fill="#FEF5DC" d="M21.621 9.125c0-.465-.181-.645-1.046-1.034-1.253-.568-1.628-.994-1.628-1.873 0-.852.698-1.472 1.421-1.653v-1.06h.038l1.021.453v.581c.323.052.633.155.918.31l.05.026.04.013-.014.039-.012.05-.13.802-.025.155-.026.103-.09-.051-.13-.09c-.323-.259-.735-.4-1.15-.4-.542 0-.826.245-.826.645 0 .387.194.555 1.034.942 1.266.569 1.653 1.021 1.653 1.95 0 .865-.607 1.499-1.317 1.732v1.213h-.091l-.981-.543v-.594c-.362-.05-.995-.181-1.396-.387l-.05-.025-.04-.026v-.038l.014-.066.116-.826.025-.142.013-.09.078.05.116.078c.44.297.956.465 1.485.478.556.014.93-.27.93-.722"/>
                        <path fill="url(#vepk8d6ivc)" d="M30.7 10.494L9.26 52.03h7.143c.22 0 .387-.168.387-.388v-2.789c2.557.49 5.193.49 7.75 0v2.79c0 .22.167.387.387.387h8.318c.194 0 .361-.142.387-.336l1.163-8.06c8.33-7.802 8.77-20.872.968-29.202-1.472-1.576-3.176-2.906-5.062-3.94z"/>
                        <path fill="#043263" d="M28.79 16.01c-.104 0-.22-.026-.311-.079-4.857-2.75-10.798-2.75-15.654 0-.297.168-.672.066-.84-.22-.167-.283-.065-.671.22-.839 5.23-2.97 11.65-2.97 16.88 0 .297.168.4.543.22.84-.102.181-.296.297-.516.297z"/>
                        <path fill="#49A5E6" d="M16.532 27.865h8.266c1.64 0 2.97 1.33 2.97 2.971 0 1.64-1.33 2.97-2.97 2.97h-8.266c-1.64 0-2.97-1.33-2.97-2.97 0-1.64 1.33-2.97 2.97-2.97z"/>
                        <circle cx="23.249" cy="30.836" r="1" fill="#1464A5"/>
                        <circle cx="18.082" cy="30.836" r="1" fill="#1464A5"/>
                    </g>
                </g>
            </g>
        </g>
    </g>
</svg>
