<?xml version="1.0" encoding="UTF-8"?>
<svg id="Capa_1" data-name="Capa 1" xmlns="http://www.w3.org/2000/svg" xmlns:xlink="http://www.w3.org/1999/xlink" viewBox="0 0 600 600">
  <defs>
    <style>
      .cls-1 {
        fill: #f7b27f;
      }

      .cls-2 {
        fill: #facba9;
      }

      .cls-3 {
        fill: #004481;
      }

      .cls-4 {
        fill: #02a5a5;
      }

      .cls-5 {
        fill: #2dcccd;
      }

      .cls-6 {
        fill: url(#Degradado_sin_nombre_2);
      }

      .cls-7 {
        fill: url(#Degradado_sin_nombre_3);
      }
    </style>
    <linearGradient id="Degradado_sin_nombre_3" data-name="Degradado sin nombre 3" x1="172.4" y1="170.76" x2="463.92" y2="418.37" gradientUnits="userSpaceOnUse">
      <stop offset="0" stop-color="#192647" stop-opacity=".5"/>
      <stop offset="1" stop-color="#192647" stop-opacity="0"/>
    </linearGradient>
    <linearGradient id="Degradado_sin_nombre_2" data-name="Degradado sin nombre 2" x1="476.39" y1="159.25" x2="41.75" y2="576.32" gradientUnits="userSpaceOnUse">
      <stop offset="0" stop-color="#ad8565"/>
      <stop offset=".66" stop-color="#ad8565" stop-opacity="0"/>
    </linearGradient>
  </defs>
  <path class="cls-7" d="m550.78,263.89c-1.66-2.7-4.52-4.44-7.68-4.67-.33.18-.69.38-1.06.59-2.9-.84-6.11-.58-8.95.99-10.82,5.98-31.74,17.7-43.41,23.78-10.5,5.48-29.63,15.52-44.63,23.14,5.2-6.63,9.8-12.48,9.82-12.52,5.7-7.28,15.36-19.43,22.4-28.2,8.2-10.2,20.73-25.72,27.01-33.65,1.85-2.33,2.66-5.16,2.51-7.93.23-.25.46-.49.67-.72.57-3.35-.59-6.77-3.08-9.08-2.4-2.07-5.64-2.88-8.73-2.15-.26.27-.54.57-.84.88-3.01.07-6,1.28-8.24,3.63-8.52,8.95-24.96,26.41-34.27,35.71-13.5,13.52-44.86,45.07-51.73,50.67-9.04,6.48-16.1,11.38-20.67,13.87-6.71,3.65-9,3-6.46-.48,5.05-7.33,9.37-15.14,12.9-23.32,4.52-10.32,4.85-18.43,4.65-26.77-.17-5.95-7.92-14.39-12.65-14.5-.92-.02-1.73.32-2.52.97-.38-.22-.77-.44-1.17-.62-2.77,2.7-5.32,9.53-11.08,19.58.31.16.67.33,1.05.52-.74,1.3-1.52,2.64-2.38,4.04-9.45,15.5-16.86,23.66-29.66,41.2-6.5,8.9-9.57,18.97-12.47,30.46l-.51-1.78c-.04.08-.07.17-.11.25-2.79-10.85-5.87-20.43-12.08-28.93-12.8-17.54-20.22-25.71-29.66-41.2-.86-1.41-1.64-2.74-2.38-4.04.38-.18.74-.36,1.05-.52-5.77-10.05-8.32-16.88-11.08-19.58-.4.19-.79.4-1.17.62-.78-.65-1.6-.99-2.52-.97-4.73.11-12.49,8.54-12.65,14.5-.2,8.34.13,16.45,4.65,26.77,3.53,8.17,7.85,15.98,12.9,23.32,2.54,3.48.24,4.13-6.46.48-4.58-2.49-11.63-7.39-20.67-13.87-6.87-5.6-38.23-37.15-51.73-50.67-9.31-9.31-25.75-26.76-34.27-35.71-2.24-2.35-5.22-3.56-8.24-3.63-.29-.31-.58-.61-.84-.88-3.09-.72-6.33.08-8.73,2.15-2.49,2.32-3.65,5.73-3.08,9.08.21.23.44.47.67.72-.15,2.77.66,5.6,2.51,7.93,6.28,7.93,18.82,23.44,27.01,33.65,7.04,8.77,16.7,20.92,22.4,28.2.03.04,4.62,5.89,9.82,12.52-14.99-7.62-34.13-17.65-44.63-23.14-11.68-6.08-32.6-17.8-43.41-23.78-2.84-1.57-6.05-1.83-8.95-.99-.37-.21-.73-.41-1.06-.59-3.16.24-6.02,1.98-7.68,4.67-1.68,2.96-1.76,6.56-.21,9.59.27.15.56.32.86.49.68,2.69,2.31,5.14,4.77,6.81,8.37,5.68,24.99,16.71,35.87,23.99,9.34,6.25,22.21,14.94,29.83,20.18.06.05,17.19,11.76,26.62,18.26-5.63-1.48-11.68.39-15.48,4.93-5.38,6.42-4.53,15.99,1.9,21.37.28.24.48.45.83.7.35.25.28.36-.13.23-5.6-1.89-11.78.02-15.35,4.74-4.47,5.89-3.22,14.34,2.42,19.1,3.81,3.2,7.67,6.14,14.76,11.88,22.98,18.6,42.97,32.68,56.96,41.88,2.36,1.55,4.72,3,7.09,4.38l.14.09.12.06c3.41,1.98,6.81,3.8,10.14,5.47l.12.06.2.1c1.57.79,3.13,1.54,4.66,2.26,16.67,15.17,30.86,32.88,42.05,52.48,3.87,6.84,12.54,9.25,19.38,5.38.74-.42,1.45-.91,2.11-1.46l1.11-.93,1.11.93c.66.55,1.36,1.03,2.11,1.46,6.84,3.87,15.52,1.46,19.38-5.38,11.19-19.61,25.39-37.31,42.05-52.48,7.21-3.4,14.89-7.44,22.46-12.42,13.99-9.2,33.99-23.28,56.96-41.88,7.09-5.74,10.95-8.68,14.76-11.88,5.63-4.75,6.89-13.2,2.42-19.1-3.56-4.72-9.74-6.63-15.35-4.74-.4.13-.48.02-.13-.23.35-.25.55-.47.83-.7,6.42-5.38,7.27-14.95,1.9-21.37-3.8-4.54-9.84-6.41-15.48-4.93,9.43-6.49,26.56-18.2,26.62-18.26,7.62-5.24,20.49-13.93,29.83-20.18,10.88-7.27,27.49-18.31,35.87-23.99,2.46-1.67,4.09-4.12,4.77-6.81.3-.17.58-.33.86-.49,1.55-3.03,1.47-6.63-.21-9.59Z"/>
  <g>
    <g>
      <g id="Capa_30" data-name="Capa 30">
        <path class="cls-1" d="m141.16,354.26c3.81,3.2,7.67,6.14,14.76,11.88,22.98,18.6,42.97,32.68,56.96,41.88s28.38,15.22,39.38,19.86c11.01,4.64,25.59,14.05,25.95,14.61s57.19-64.6,57.19-64.6l-4.46-3.76s-17.07-15.97-24.21-38.91c-7.14-22.93-8.33-41.34-19.32-56.38-12.8-17.54-20.22-25.71-29.66-41.2s-11.37-24.59-16.1-24.48-12.49,8.54-12.65,14.5c-.2,8.34.13,16.45,4.65,26.77,3.53,8.17,7.85,15.98,12.9,23.32,2.54,3.48.24,4.13-6.46.48-6.71-3.65-18.73-12.47-34.53-23.85,0,0,9.85,7.46,0,0-5.05-3.82-14.21-5.66-21.83,3.37h0c-6.78,8.03-3.73,15.76.87,19.94,7.48,6.81,0,0,0,0,8.36,7.52-6.79-6.27,0,0,.07.08.08.21.03.3-.08.12-.24.17-.37.1-6.19-3.06-13.67-1.49-18.11,3.8-5.33,6.34-4.51,15.8,1.83,21.12.17.16.34.31.53.44.26.19.18.31-.1.2-6.02-2.24-12.8-.44-16.92,4.48-5.38,6.42-4.53,15.99,1.9,21.37.28.24.48.45.83.7s.28.36-.13.23c-5.6-1.89-11.78.02-15.35,4.74-4.47,5.89-3.22,14.34,2.42,19.1Z"/>
        <path class="cls-5" d="m351.86,374.93c-5.15-4.28-12.58-4.41-17.87-.31-23.4,18.31-42.71,41.31-56.7,67.51-3.13,5.92-1.72,13.22,3.39,17.56l20.43,17.16c.66.55,1.36,1.03,2.11,1.46,6.84,3.87,15.52,1.46,19.38-5.38,12.83-22.49,29.62-42.48,49.56-59.01.69-.56,1.32-1.18,1.89-1.86,5.03-6,4.25-14.94-1.75-19.98l-20.44-17.15Z"/>
        <circle class="cls-4" cx="304.48" cy="452.48" r="8.92"/>
        <path class="cls-2" d="m245.34,213.49c-1.21.57-2.34,1.3-3.36,2.18-2.08,1.88-4.59,6.28-2.14,11.99,2.45,5.7,4.59,7.75,5.51,9.25.71,1.16,7.87-2.24,11.07-3.83-5.77-10.05-8.32-16.88-11.08-19.58Z"/>
      </g>
      <g id="Capa_30-2" data-name="Capa 30">
        <path class="cls-1" d="m219.8,264.65c-6.03-4.68-38.36-37.21-52.11-50.98-9.31-9.31-25.75-26.76-34.27-35.71-4.37-4.58-11.58-4.87-16.31-.66h0c-4.64,4.13-5.26,11.17-1.39,16.04,6.28,7.93,18.82,23.44,27.01,33.65,7.04,8.77,16.7,20.92,22.4,28.2.06.1,24.5,31.17,24.43,31.25"/>
        <path class="cls-2" d="m128.74,190.9c3.54-3.07,4.45-7.88,3.81-8.62-.39-.45-5.37-5.85-8.22-8.83-3.09-.72-6.33.08-8.73,2.15-2.49,2.32-3.65,5.73-3.08,9.08,2.89,3.1,7.57,8.21,8.24,8.81,1.21,1.07,4.19.69,7.97-2.6Z"/>
      </g>
      <g id="Capa_30-3" data-name="Capa 30">
        <path class="cls-1" d="m195.34,277.55c-7.16-2.66-47.76-23.98-65.01-32.99-11.68-6.08-32.6-17.8-43.41-23.78-5.54-3.06-12.51-1.17-15.76,4.26h0c-3.19,5.34-1.66,12.23,3.49,15.72,8.37,5.68,24.99,16.71,35.87,23.99,9.34,6.25,22.21,14.94,29.83,20.18.08.07,32.73,22.37,32.68,22.48"/>
        <path class="cls-2" d="m86.34,234.53c2.45-3.99,1.88-8.85,1.05-9.37-.51-.32-6.88-3.96-10.49-5.95-3.16.24-6.02,1.98-7.68,4.67-1.68,2.96-1.76,6.56-.21,9.59,3.68,2.09,9.68,5.56,10.5,5.93,1.48.66,4.2-.6,6.83-4.87Z"/>
      </g>
    </g>
    <path class="cls-6" d="m299.6,307.51c-4.17,8.97-7.96,19.04-13.5,30.03-10.8,21.46-30.24,34.43-30.24,34.43l-2.02,1.2c-.36-.4-.71-.8-1.07-1.2-4.55-4.91-11.9-6-17.68-2.62l-22.97,13.58c-6.74,3.99-8.97,12.68-4.99,19.42.45.76.97,1.48,1.56,2.15.5.58,1,1.16,1.5,1.74l9.91,6.25,10.37,5.59,5.24,2.54,36.82-50.12,30.72-50.34-3.65-12.65Z"/>
    <g>
      <g id="Capa_30-4" data-name="Capa 30">
        <path class="cls-1" d="m461.26,335.17c-3.56-4.72-9.74-6.63-15.35-4.74-.4.13-.48.02-.13-.23s.55-.47.83-.7c6.42-5.38,7.27-14.95,1.9-21.37-4.12-4.93-10.9-6.72-16.92-4.48-.28.12-.35,0-.1-.2.18-.14.36-.29.53-.44,6.34-5.33,7.16-14.78,1.83-21.12-4.44-5.29-11.92-6.85-18.11-3.8-.13.07-.29.02-.37-.1-.06-.1-.05-.22.03-.3,6.79-6.27-8.36,7.52,0,0,0,0-7.48,6.81,0,0,4.6-4.19,7.65-11.91.87-19.94h0c-7.62-9.03-16.78-7.19-21.83-3.37-9.85,7.46,0,0,0,0-15.8,11.38-27.82,20.2-34.53,23.85s-9,3-6.46-.48c5.05-7.33,9.37-15.14,12.9-23.32,4.52-10.32,4.85-18.43,4.65-26.77-.17-5.95-7.92-14.39-12.65-14.5s-6.65,8.99-16.1,24.48c-9.45,15.5-16.86,23.66-29.66,41.2-11,15.04-12.18,33.45-19.32,56.38-7.14,22.93-24.21,38.91-24.21,38.91l-4.46,3.76s56.83,65.16,57.19,64.6,14.94-9.97,25.95-14.61c11.01-4.64,25.39-10.66,39.38-19.86s33.99-23.28,56.96-41.88c7.09-5.74,10.95-8.68,14.76-11.88,5.63-4.75,6.89-13.2,2.42-19.1Z"/>
        <path class="cls-5" d="m227.7,392.08c-6,5.03-6.78,13.98-1.75,19.98.57.68,1.2,1.3,1.89,1.86,19.93,16.53,36.72,36.52,49.56,59.01,3.87,6.84,12.54,9.25,19.38,5.38.74-.42,1.45-.91,2.11-1.46l20.43-17.16c5.11-4.33,6.52-11.63,3.39-17.56-13.99-26.21-33.3-49.2-56.7-67.51-5.29-4.1-12.72-3.97-17.87.31l-20.44,17.15Z"/>
        <circle class="cls-4" cx="295.52" cy="452.48" r="8.92"/>
        <path class="cls-2" d="m343.58,233.07c3.2,1.59,10.36,4.99,11.07,3.83.92-1.5,3.06-3.55,5.51-9.25,2.45-5.7-.06-10.11-2.14-11.99-1.01-.88-2.14-1.61-3.36-2.18-2.77,2.7-5.32,9.53-11.08,19.58Z"/>
      </g>
      <g id="Capa_30-5" data-name="Capa 30">
        <path class="cls-1" d="m410.45,286.44c-.07-.09,24.37-31.16,24.43-31.25,5.7-7.28,15.36-19.43,22.4-28.2,8.2-10.2,20.73-25.72,27.01-33.65,3.86-4.87,3.25-11.91-1.39-16.04h0c-4.73-4.21-11.94-3.92-16.31.66-8.52,8.95-24.96,26.41-34.27,35.71-13.76,13.77-46.08,46.3-52.11,50.98"/>
        <path class="cls-2" d="m479.23,193.5c.67-.6,5.35-5.71,8.24-8.81.57-3.35-.59-6.77-3.08-9.08-2.4-2.07-5.64-2.88-8.73-2.15-2.85,2.98-7.83,8.37-8.22,8.83-.64.75.28,5.55,3.81,8.62,3.79,3.29,6.76,3.67,7.97,2.6Z"/>
      </g>
      <g id="Capa_30-6" data-name="Capa 30">
        <path class="cls-1" d="m426.98,307.41c-.04-.1,32.6-22.4,32.68-22.48,7.62-5.24,20.49-13.93,29.83-20.18,10.88-7.27,27.49-18.31,35.87-23.99,5.15-3.49,6.68-10.39,3.49-15.72h0c-3.24-5.44-10.21-7.32-15.76-4.26-10.82,5.98-31.74,17.7-43.41,23.78-17.26,9.01-57.86,30.33-65.01,32.99"/>
        <path class="cls-2" d="m520.49,239.41c.82-.37,6.82-3.84,10.5-5.93,1.55-3.03,1.47-6.63-.21-9.59-1.66-2.7-4.52-4.44-7.68-4.67-3.61,1.99-9.98,5.64-10.49,5.95-.83.52-1.4,5.38,1.05,9.37,2.62,4.27,5.34,5.53,6.83,4.87Z"/>
      </g>
    </g>
  </g>
  <g>
    <g>
      <path class="cls-3" d="m46.04,186.02c-2.49,0-4.5-2.01-4.5-4.5,0-51.05,41.54-92.59,92.59-92.59,2.49,0,4.5,2.01,4.5,4.5s-2.01,4.5-4.5,4.5c-46.09,0-83.59,37.5-83.59,83.59,0,2.49-2.01,4.5-4.5,4.5Z"/>
      <path class="cls-3" d="m85.17,172.96c-2.49,0-4.5-2.01-4.5-4.5,0-22.27,18.12-40.39,40.39-40.39,2.49,0,4.5,2.01,4.5,4.5s-2.01,4.5-4.5,4.5c-17.31,0-31.39,14.08-31.39,31.39,0,2.49-2.01,4.5-4.5,4.5Z"/>
      <path class="cls-3" d="m46.04,187.12h0c-1.19,0-2.34-.47-3.18-1.32l-13.58-13.58c-1.76-1.76-1.76-4.61,0-6.36,1.76-1.76,4.61-1.76,6.36,0l10.4,10.4,10.4-10.4c1.76-1.76,4.61-1.76,6.36,0,1.76,1.76,1.76,4.61,0,6.36l-13.58,13.58c-.84.84-1.99,1.32-3.18,1.32Z"/>
      <path class="cls-3" d="m121.07,111.52c-1.15,0-2.3-.44-3.18-1.32-1.76-1.76-1.76-4.61,0-6.36l10.4-10.4-10.4-10.4c-1.76-1.76-1.76-4.61,0-6.36,1.76-1.76,4.61-1.76,6.36,0l13.58,13.58c.84.84,1.32,1.99,1.32,3.18s-.47,2.34-1.32,3.18l-13.58,13.58c-.88.88-2.03,1.32-3.18,1.32Z"/>
    </g>
    <g>
      <path class="cls-3" d="m553.96,186.31c-2.49,0-4.5-2.01-4.5-4.5,0-46.09-37.5-83.59-83.59-83.59-2.49,0-4.5-2.01-4.5-4.5s2.01-4.5,4.5-4.5c51.05,0,92.59,41.54,92.59,92.59,0,2.49-2.01,4.5-4.5,4.5Z"/>
      <path class="cls-3" d="m514.83,173.25c-2.49,0-4.5-2.01-4.5-4.5,0-17.31-14.08-31.39-31.39-31.39-2.49,0-4.5-2.01-4.5-4.5s2.01-4.5,4.5-4.5c22.27,0,40.39,18.12,40.39,40.39,0,2.49-2.01,4.5-4.5,4.5Z"/>
      <path class="cls-3" d="m478.36,111.8c-1.15,0-2.3-.44-3.18-1.32l-13.58-13.58c-1.76-1.76-1.76-4.61,0-6.36l13.58-13.58c1.76-1.76,4.61-1.76,6.36,0,1.76,1.76,1.76,4.61,0,6.36l-10.4,10.4,10.4,10.4c1.76,1.76,1.76,4.61,0,6.36-.88.88-2.03,1.32-3.18,1.32Z"/>
      <path class="cls-3" d="m553.96,186.83h0c-1.19,0-2.34-.47-3.18-1.32l-13.58-13.58c-1.76-1.76-1.76-4.61,0-6.36,1.76-1.76,4.61-1.76,6.36,0l10.4,10.4,10.4-10.4c1.76-1.76,4.61-1.76,6.36,0,1.76,1.76,1.76,4.61,0,6.36l-13.58,13.58c-.84.84-1.99,1.32-3.18,1.32Z"/>
    </g>
  </g>
</svg>